<?xml version="1.0" standalone="no"?><!DOCTYPE svg PUBLIC "-//W3C//DTD SVG 1.1//EN" "http://www.w3.org/Graphics/SVG/1.1/DTD/svg11.dtd"><svg t="1572608196229" class="icon" viewBox="0 0 1024 1024" version="1.1" xmlns="http://www.w3.org/2000/svg" p-id="12760" xmlns:xlink="http://www.w3.org/1999/xlink" width="200" height="200"><defs><style type="text/css"></style></defs><path d="M277.634921 1002.664992A127.522816 127.522816 0 0 1 186.547195 785.840484l6.072515-6.191584V109.886208a85.015211 85.015211 0 1 1 170.030422 0v669.762692l6.072515 6.191584a127.522816 127.522816 0 0 1-91.087726 216.824508z" fill="#F5F7FA" p-id="12761"></path><path d="M233.341282 449.947052A21.313337 21.313337 0 1 1 212.147014 428.752784a21.313337 21.313337 0 0 1 21.194268 21.194268zM364.436166 449.947052A21.313337 21.313337 0 1 1 343.122829 428.752784a21.313337 21.313337 0 0 1 21.313337 21.194268z" fill="#434A54" p-id="12762"></path><path d="M277.634921 917.649781a42.507605 42.507605 0 1 1 42.507606-42.507605 42.507605 42.507605 0 0 1-42.507606 42.507605z" fill="#ED5564" p-id="12763"></path><path d="M277.634921 811.321233a63.820943 63.820943 0 1 0 63.701874 63.820943 63.820943 63.820943 0 0 0-63.701874-63.820943z m0 85.015211a21.313337 21.313337 0 1 1 21.194269-21.194268A21.313337 21.313337 0 0 1 277.634921 896.574582z" fill="#DA4453" p-id="12764"></path><path d="M277.634921 853.828839a21.313337 21.313337 0 0 1-21.313337-21.194269v-595.344614a21.313337 21.313337 0 1 1 42.507606 0v595.344614a21.194268 21.194268 0 0 1-21.194269 21.194269z" fill="#DA4453" p-id="12765"></path><path d="M383.844401 770.956868V109.886208a106.328548 106.328548 0 1 0-212.538028 0v661.07066a148.836154 148.836154 0 1 0 212.538028 0zM277.634921 981.351655A106.209479 106.209479 0 0 1 201.668949 801.319444l11.906892-11.906893V110.719691a63.820943 63.820943 0 1 1 127.522816 0v678.69286l11.906893 11.906893a106.209479 106.209479 0 0 1-75.370629 180.032211z" fill="#E6E9ED" p-id="12766"></path><path d="M660.203371 281.464526a21.194268 21.194268 0 0 0-21.194269 21.194269v42.507605a21.313337 21.313337 0 1 0 42.507606 0v-42.507605a21.313337 21.313337 0 0 0-21.313337-21.194269zM660.203371 664.032976a21.313337 21.313337 0 0 0-21.194269 21.313337v42.507605a21.313337 21.313337 0 0 0 42.507606 0v-42.507605a21.313337 21.313337 0 0 0-21.313337-21.313337z" fill="#F6BB42" p-id="12767"></path><path d="M494.935706 349.929157a21.313337 21.313337 0 0 0 0 30.124438l30.005368 30.005368a21.313337 21.313337 0 0 0 30.124438-30.005368l-30.124438-30.124438a21.075199 21.075199 0 0 0-30.005368 0zM765.460298 620.45375a21.313337 21.313337 0 0 0 0 30.124437L795.584736 680.583556a21.313337 21.313337 0 1 0 30.124437-30.005369L795.584736 620.45375a21.313337 21.313337 0 0 0-30.124438 0z" fill="#FFCE54" p-id="12768"></path><path d="M426.471075 515.554029a21.313337 21.313337 0 0 0 21.313337 21.194268h42.507606a21.313337 21.313337 0 1 0 0-42.507605h-42.626675A21.313337 21.313337 0 0 0 426.471075 515.554029zM809.039524 515.554029a21.313337 21.313337 0 0 0 21.313337 21.194268h42.507606a21.313337 21.313337 0 0 0 0-42.507605h-42.507606A21.313337 21.313337 0 0 0 809.039524 515.554029z" fill="#F6BB42" p-id="12769"></path><path d="M494.935706 680.583556a21.075199 21.075199 0 0 0 30.005368 0l30.124438-30.005369a21.313337 21.313337 0 0 0 0-30.124437 21.432406 21.432406 0 0 0-30.124438 0l-30.005368 30.124437a21.075199 21.075199 0 0 0 0 30.005369zM765.460298 410.058963a21.075199 21.075199 0 0 0 30.005369 0l30.124438-30.005368A21.313337 21.313337 0 0 0 795.584736 349.929157l-30.005369 30.124438a21.075199 21.075199 0 0 0-0.119069 30.005368zM660.203371 621.52537a106.328548 106.328548 0 1 1 106.328548-105.971341 106.328548 106.328548 0 0 1-106.328548 105.971341z" fill="#FFCE54" p-id="12770"></path><path d="M660.203371 387.793074A127.522816 127.522816 0 1 0 787.845256 515.554029a127.522816 127.522816 0 0 0-127.641885-127.760955z m0 212.538028A85.13428 85.13428 0 1 1 745.218582 515.554029a85.253349 85.253349 0 0 1-85.015211 84.777073z" fill="#F6BB42" p-id="12771"></path></svg>